<svg xmlns="http://www.w3.org/2000/svg" viewBox="0 0 100 100" preserveAspectRatio="xMidYMid" width="214" height="214" style="shape-rendering: auto; display: block; background: transparent;" xmlns:xlink="http://www.w3.org/1999/xlink"><g><g transform="rotate(0 50 50)">
  <rect fill="#e4312b" height="7" width="4" ry="0.98" rx="0.98" y="33.5" x="48">
    <animate repeatCount="indefinite" begin="-2.8645833333333335s" dur="3.125s" keyTimes="0;1" values="1;0" attributeName="opacity"></animate>
  </rect>
</g><g transform="rotate(30 50 50)">
  <rect fill="#000000" height="7" width="4" ry="0.98" rx="0.98" y="33.5" x="48">
    <animate repeatCount="indefinite" begin="-2.604166666666667s" dur="3.125s" keyTimes="0;1" values="1;0" attributeName="opacity"></animate>
  </rect>
</g><g transform="rotate(60 50 50)">
  <rect fill="#ffffff" height="7" width="4" ry="0.98" rx="0.98" y="33.5" x="48">
    <animate repeatCount="indefinite" begin="-2.34375s" dur="3.125s" keyTimes="0;1" values="1;0" attributeName="opacity"></animate>
  </rect>
</g><g transform="rotate(90 50 50)">
  <rect fill="#149954" height="7" width="4" ry="0.98" rx="0.98" y="33.5" x="48">
    <animate repeatCount="indefinite" begin="-2.0833333333333335s" dur="3.125s" keyTimes="0;1" values="1;0" attributeName="opacity"></animate>
  </rect>
</g><g transform="rotate(120 50 50)">
  <rect fill="#e4312b" height="7" width="4" ry="0.98" rx="0.98" y="33.5" x="48">
    <animate repeatCount="indefinite" begin="-1.8229166666666667s" dur="3.125s" keyTimes="0;1" values="1;0" attributeName="opacity"></animate>
  </rect>
</g><g transform="rotate(150 50 50)">
  <rect fill="#000000" height="7" width="4" ry="0.98" rx="0.98" y="33.5" x="48">
    <animate repeatCount="indefinite" begin="-1.5625s" dur="3.125s" keyTimes="0;1" values="1;0" attributeName="opacity"></animate>
  </rect>
</g><g transform="rotate(180 50 50)">
  <rect fill="#ffffff" height="7" width="4" ry="0.98" rx="0.98" y="33.5" x="48">
    <animate repeatCount="indefinite" begin="-1.3020833333333335s" dur="3.125s" keyTimes="0;1" values="1;0" attributeName="opacity"></animate>
  </rect>
</g><g transform="rotate(210 50 50)">
  <rect fill="#149954" height="7" width="4" ry="0.98" rx="0.98" y="33.5" x="48">
    <animate repeatCount="indefinite" begin="-1.0416666666666667s" dur="3.125s" keyTimes="0;1" values="1;0" attributeName="opacity"></animate>
  </rect>
</g><g transform="rotate(240 50 50)">
  <rect fill="#e4312b" height="7" width="4" ry="0.98" rx="0.98" y="33.5" x="48">
    <animate repeatCount="indefinite" begin="-0.78125s" dur="3.125s" keyTimes="0;1" values="1;0" attributeName="opacity"></animate>
  </rect>
</g><g transform="rotate(270 50 50)">
  <rect fill="#000000" height="7" width="4" ry="0.98" rx="0.98" y="33.5" x="48">
    <animate repeatCount="indefinite" begin="-0.5208333333333334s" dur="3.125s" keyTimes="0;1" values="1;0" attributeName="opacity"></animate>
  </rect>
</g><g transform="rotate(300 50 50)">
  <rect fill="#ffffff" height="7" width="4" ry="0.98" rx="0.98" y="33.5" x="48">
    <animate repeatCount="indefinite" begin="-0.2604166666666667s" dur="3.125s" keyTimes="0;1" values="1;0" attributeName="opacity"></animate>
  </rect>
</g><g transform="rotate(330 50 50)">
  <rect fill="#149954" height="7" width="4" ry="0.98" rx="0.98" y="33.5" x="48">
    <animate repeatCount="indefinite" begin="0s" dur="3.125s" keyTimes="0;1" values="1;0" attributeName="opacity"></animate>
  </rect>
</g><g></g></g><!-- [ldio] generated by https://loading.io --></svg>